<mxfile host="app.diagrams.net" modified="2023-06-29T08:36:59.959Z" agent="Mozilla/5.0 (Windows NT 10.0; Win64; x64) AppleWebKit/537.36 (KHTML, like Gecko) Chrome/90.0.4430.72 Safari/537.36" etag="zyZQ2qbXXEbEN5LdkdLE" version="21.3.2" type="github" pages="2">
  <diagram name="第 1 页" id="Y6NeB6YuhVJnNUALUvzM">
    <mxGraphModel dx="1434" dy="764" grid="1" gridSize="10" guides="1" tooltips="1" connect="1" arrows="1" fold="1" page="1" pageScale="1" pageWidth="827" pageHeight="1169" math="0" shadow="0">
      <root>
        <mxCell id="0" />
        <mxCell id="1" parent="0" />
        <mxCell id="rUZRIowUhvnyUxmbE3W7-5" value="" style="edgeStyle=orthogonalEdgeStyle;rounded=0;orthogonalLoop=1;jettySize=auto;html=1;fontSize=15;fontStyle=1;strokeWidth=2;" edge="1" parent="1" source="rUZRIowUhvnyUxmbE3W7-1" target="rUZRIowUhvnyUxmbE3W7-4">
          <mxGeometry relative="1" as="geometry">
            <Array as="points">
              <mxPoint x="555" y="270" />
            </Array>
          </mxGeometry>
        </mxCell>
        <mxCell id="-_fgUhSU89ilqW0Jq1CY-1" style="edgeStyle=orthogonalEdgeStyle;rounded=0;orthogonalLoop=1;jettySize=auto;html=1;exitX=0;exitY=0.5;exitDx=0;exitDy=0;entryX=0.5;entryY=0;entryDx=0;entryDy=0;fontStyle=1;strokeWidth=2;" edge="1" parent="1" source="rUZRIowUhvnyUxmbE3W7-1" target="rUZRIowUhvnyUxmbE3W7-2">
          <mxGeometry relative="1" as="geometry">
            <mxPoint x="299" y="270" as="sourcePoint" />
          </mxGeometry>
        </mxCell>
        <mxCell id="rUZRIowUhvnyUxmbE3W7-1" value="Eisenberg等&amp;nbsp;(2019)&amp;nbsp;&lt;br style=&quot;font-size: 15px;&quot;&gt;实验信效度有所欠缺" style="rounded=0;whiteSpace=wrap;html=1;fontSize=15;fontStyle=1;strokeWidth=2;fillColor=#d5e8d4;strokeColor=#82b366;" vertex="1" parent="1">
          <mxGeometry x="319" y="240" width="170" height="60" as="geometry" />
        </mxCell>
        <mxCell id="rUZRIowUhvnyUxmbE3W7-2" value="Kwon等 (2022)&amp;nbsp;&lt;br style=&quot;font-size: 15px;&quot;&gt;自适应选择实验材料" style="whiteSpace=wrap;html=1;rounded=0;fontSize=15;fontStyle=1;strokeWidth=2;fillColor=#ffe6cc;strokeColor=#d79b00;" vertex="1" parent="1">
          <mxGeometry x="149" y="380" width="170" height="60" as="geometry" />
        </mxCell>
        <mxCell id="rUZRIowUhvnyUxmbE3W7-4" value="Kucina等 (2023)&amp;nbsp;&lt;br style=&quot;font-size: 15px;&quot;&gt;优化实验流程" style="whiteSpace=wrap;html=1;rounded=0;fontSize=15;fontStyle=1;strokeWidth=2;fillColor=#fff2cc;strokeColor=#d6b656;" vertex="1" parent="1">
          <mxGeometry x="450" y="380" width="210" height="60" as="geometry" />
        </mxCell>
      </root>
    </mxGraphModel>
  </diagram>
  <diagram id="Mz561NkJV60P83ieriLZ" name="第 2 页">
    <mxGraphModel dx="1434" dy="764" grid="1" gridSize="10" guides="1" tooltips="1" connect="1" arrows="1" fold="1" page="1" pageScale="1" pageWidth="827" pageHeight="1169" math="0" shadow="0">
      <root>
        <mxCell id="0" />
        <mxCell id="1" parent="0" />
      </root>
    </mxGraphModel>
  </diagram>
</mxfile>
